<svg width="800" height="600" xmlns="http://www.w3.org/2000/svg">

 <g>
  <title>Layer 1</title>
  <g>
   <path d="m482.14802,263.09821c1.6,-2.3 1,-5.4 -1.2,-7c-2.3,-1.6 -5.4,-1 -7,1.2c-2.8,3.9 -5,8.2 -6.8,12.6c-6.8,17.4 -3.2,32.2 0,45.2c2.3,9.5 4.3,17.7 2.1,25.4c-1.6,5.2 -11.9,22.6 -34.2,24c0.5,-0.5 1,-1 1.5,-1.6c0.3,-0.3 0.6,-0.5 1,-0.7c14,-11.6 21.1,-28.8 21.1,-51.1c0,-21.9 -7,-41.9 -18.4,-57c0,0 0,0 0,-0.1c-1.2,-6.2 -2.8,-12.3 -5,-18.2c-1.7,-4.5 -3.7,-9.3 -8,-12c-3.7,-2.2 -7.6,-1.6 -10.3,1.8c-1.6,2.1 -3.4,3.8 -4.8,5.7c-7.6,-3.3 -15.8,-5.1 -24.3,-5.1c-15.1,0 -29,5.7 -40.5,15.3c-0.8,-0.8 -1.9,-1.4 -3.3,-1.4c-5,-0.3 -13.7,-2.7 -16.6,3.1c-1.3,2.5 -0.9,5.6 -0.9,8.3c0,3.8 0,7.6 0,11.4c0,1.4 0.5,2.5 1.2,3.3c-6.8,13 -10.8,28.4 -10.8,44.8c0,22.3 7.1,39.5 21.1,51.1c12.1,10.1 29.3,15.4 49.7,15.4c11,0 21.1,-1.6 30,-4.6c0,0 0,0 0,0c5.2,1.2 9.9,1.7 14.3,1.7c13.1,0 22.7,-4.4 29.1,-8.8c10.2,-7 15.8,-16.5 17.6,-22.4c3,-10.3 0.6,-20.2 -1.9,-30.6c-3,-12.2 -6.1,-24.8 -0.4,-39.2c1.4,-3.7 3.3,-7.2 5.7,-10.5zm-58.8,-29c0.1,0 0.1,0.1 0.2,0.1c0.3,1.1 1.2,2.4 1.6,3.5c0.3,0.7 0.6,1.4 0.8,2.1c-1.7,-1.3 -3.4,-2.5 -5.2,-3.7c0.8,-0.6 1.9,-1.3 2.6,-2zm-86.8,15.7c0.2,0 0.4,0 0.6,0c0.6,0 1.1,0.1 1.7,0.1c-0.8,0.9 -1.6,1.9 -2.4,2.8c0.1,-1 0.1,-1.9 0.1,-2.9zm51.2,-13.5c33.5,0 60.8,33.5 60.8,74.8c0,0 0,0.1 0,0.1c-1.7,-2.4 -3.8,-4.5 -6.5,-6.3c-19.1,-12.2 -44,-17.6 -66.5,-15.6c-11.6,1.1 -24.6,4.3 -33.5,12.3c-4.2,3.8 -6.6,8.9 -8.7,14c-1.7,4.1 -3.3,8.1 -4.5,12.3c-1.1,-5 -1.8,-10.6 -1.8,-16.9c0,-41.2 27.2,-74.7 60.7,-74.7z"/>
  </g>
  <ellipse ry="0.5" id="svg_6" cy="268.5" cx="411" stroke-width="0" stroke="#000" fill="#efef77"/>
  <ellipse ry="19" rx="7" id="svg_7" cy="264" cx="384" stroke-width="0" stroke="#000" fill="#e096e0"/>
  <text xml:space="preserve" text-anchor="start" font-family="'Rubik'" font-size="24" id="svg_9" y="338" x="343" stroke-width="0" stroke="#ffff56" fill="#FFAAB8">Hua.GG</text>
 </g>
</svg>